<svg width="24" height="24" viewBox="0 0 24 24" fill="none" xmlns="http://www.w3.org/2000/svg">
<g clip-path="url(#clip0_224_7)">
<rect width="24" height="24" fill="#2E2E2E"/>
<path d="M9.90352 14.998L9.3274 8.54715L6.16647 9.47827L6.25842 11.0626C6.2839 11.6297 6.29878 12.175 6.30305 12.6984C6.31273 13.2118 6.29467 13.6877 6.24887 14.1259C6.20082 14.5564 6.11554 14.9313 5.99305 15.2505C5.87597 15.5598 5.71107 15.7916 5.49835 15.9459L3.7457 16.1874C4.0414 16.1169 4.27642 15.9394 4.45077 15.6549C4.62286 15.3627 4.74713 14.993 4.82358 14.5457C4.9077 14.0962 4.95347 13.5872 4.9609 13.0188C4.96607 12.4426 4.95229 11.8304 4.91956 11.1822L4.77104 8.51524L10.6791 6.7749L11.3748 14.5646L9.90352 14.998ZM3.81803 19.4014L3.55029 16.2449L12.4814 13.6141L12.7606 16.7672L11.3813 17.1735L11.2216 15.3593L5.04918 17.1775L5.20884 18.9917L3.81803 19.4014Z" fill="white"/>
<path d="M13.847 14.5859L13.2688 8.08567L14.7171 7.65905L15.1037 12.0672L18.0504 6.67715L19.4183 6.27423L19.9964 12.7745L18.5367 13.2045L18.1697 8.77811L15.2263 14.1796L13.847 14.5859Z" fill="white"/>
</g>
<defs>
<clipPath id="clip0_224_7">
<rect width="24" height="24" rx="5.43" fill="white"/>
</clipPath>
</defs>
</svg>
